<svg xmlns="http://www.w3.org/2000/svg" version="1.1" xmlns:xlink="http://www.w3.org/1999/xlink" xmlns:svgjs="http://svgjs.dev/svgjs" width="100%" height="100%" viewBox="0 0 1000 600"><rect width="1000" height="600" x="0" y="0" fill="#a81718"/><g><rect width="333.3333333333333" height="333.3333333333333" y="311.86499143540044" fill="#292826" transform="matrix(0.4315661491103437,0,0,0.4315661491103437,0,93.48194527212846)" x="289.6429443359375"/><path d="M465.58541318488574 553.5316670994855L447.0338280831185 553.5316670994855L447.0338280831185 487.4602463627104L381.30962952739253 487.4602463627104L381.30962952739253 469.6031056230415L447.0338280831185 469.6031056230415L447.0338280831185 403.5316848862663L465.58541318488574 403.5316848862663L465.58541318488574 469.6031056230415L531.3096117406117 469.6031056230415L531.3096117406117 487.4602463627104L465.58541318488574 487.4602463627104L465.58541318488574 553.5316670994855Z " fill="#ffffff" transform="matrix(0.4315661491103437,0,0,0.4315661491103437,0,93.48194527212846)"/><path d="M755.6517151866373 551.557987084457L706.309614463999 551.557987084457L706.309614463999 548.4055750938439L722.0990866952433 540.5108389782218L722.0990866952433 432.34198928292705L706.309614463999 424.44725316730495L706.309614463999 421.29484117669193L755.6517151866373 421.29484117669193L755.6517151866373 424.44725316730495L739.8622429553931 432.34198928292705L739.8622429553931 540.5108389782218L755.6517151866373 548.4055750938439L755.6517151866373 551.557987084457ZM821.1670600350292 551.557987084457L778.9521516389942 551.557987084457L778.9521516389942 548.4055750938439L791.3699136541916 542.0733388344388L791.3699136541916 483.27400213996145L779.5278094807584 472.99439782274516L779.5278094807584 471.623783913783L804.0069738948227 460.7685217548025L805.1857018565303 460.7685217548025L806.9674999381812 475.3792660243393L807.9543419526339 475.3792660243393Q815.4653061737466 467.8683018032266 822.4554371094537 464.3321179181042Q829.4729803233399 460.7685217548025 837.9433742807263 460.7685217548025L837.9433742807263 460.7685217548025Q849.5935925069048 460.7685217548025 856.9949076153005 466.57992472880215Q864.3962227236962 472.418739980981 864.3962227236962 483.84965998172555L864.3962227236962 483.84965998172555L864.3962227236962 542.0733388344388L876.8413970170727 548.4055750938439L876.8413970170727 551.557987084457L834.5990763428586 551.557987084457L834.5990763428586 548.4055750938439L848.606750492452 542.0733388344388L848.606750492452 493.1424222844891Q848.606750492452 484.4527301016689 843.1791194129618 479.9022919239145Q837.7514883334716 475.3792660243393 829.0617961506514 475.3792660243393L829.0617961506514 475.3792660243393Q823.7438141838782 475.3792660243393 817.3293410899352 477.16106410599014Q810.9148679959922 478.91544990946176 807.1593858854358 482.2871601255087L807.1593858854358 482.2871601255087L807.1593858854358 542.0733388344388L821.1670600350292 548.4055750938439L821.1670600350292 551.557987084457ZM905.8435873307124 553.5316711133626L904.664859369005 553.5316711133626L904.664859369005 426.037165301701L892.8227551955717 415.75756098448477L892.8227551955717 414.3869470755225L919.2756036385417 403.53168491654213L920.4543316002491 403.53168491654213L920.4543316002491 472.99439782274516L921.2492876674472 472.99439782274516Q928.7328396103807 466.6895738415191 935.860031936984 463.7290477981608Q942.9598119854081 460.7685217548025 950.8545481010302 460.7685217548025L950.8545481010302 460.7685217548025Q960.9148541928125 460.7685217548025 968.6177043611799 465.8946177743211Q976.3205545295474 471.0207137938396 980.7613435945848 480.39571293114085Q985.2021326596223 489.77071206844215 985.2021326596223 502.8189564817621L985.2021326596223 502.8189564817621Q985.2021326596223 518.9922006075158 979.0617823474718 530.3408837737225Q972.9488443135004 541.6895669399294 962.5047663272087 547.610619026646Q952.0332760627376 553.5316711133626 939.012443927597 553.5316711133626L939.012443927597 553.5316711133626Q930.9258218647202 553.5316711133626 923.9082786508338 552.0514080916834Q916.8907354369475 550.5711450700041 910.7777974029761 548.4055750938439L910.7777974029761 548.4055750938439L905.8435873307124 553.5316711133626ZM939.9992859420497 474.39242400988655L939.9992859420497 474.39242400988655Q935.2569618170406 474.39242400988655 930.2131026320599 475.8726870315657Q925.1966557252583 477.35295005324485 920.4543316002491 480.31347609660315L920.4543316002491 480.31347609660315L920.4543316002491 535.9604008004674Q925.9916117924563 540.3189530309671 931.6111288192012 542.1829879471557Q937.2306458459461 544.0470228633442 944.1385399471155 544.0470228633442L944.1385399471155 544.0470228633442Q951.0464340482848 544.0470228633442 956.7756001877467 540.4011898655049Q962.5047663272087 536.7553568676656 965.9587133777934 528.6687348047886Q969.412660428378 520.5821127419118 969.412660428378 507.34198238133723L969.412660428378 507.34198238133723Q969.412660428378 490.1818962411308 960.8052050800956 482.2871601255087Q952.2251620099923 474.39242400988655 939.9992859420497 474.39242400988655ZM1048.1407233591653 553.5316711133626L1048.1407233591653 553.5316711133626Q1035.3117771712793 553.5316711133626 1025.4433570267518 547.4187330793911Q1015.574936882224 541.3057950454199 1010.1473058027339 530.834304780949Q1004.7196747232437 520.3628145164779 1004.7196747232437 507.1500964340825L1004.7196747232437 507.1500964340825Q1004.7196747232437 493.9373783516872 1010.1473058027339 483.4658880872161Q1015.574936882224 472.99439782274516 1025.4433570267518 466.88145978877384Q1035.3117771712793 460.7685217548025 1048.1407233591653 460.7685217548025L1048.1407233591653 460.7685217548025Q1061.1889677724853 460.7685217548025 1070.9477388042958 466.88145978877384Q1080.7065098361065 472.99439782274516 1086.1341409155968 483.4658880872161Q1091.561771995087 493.9373783516872 1091.561771995087 507.1500964340825L1091.561771995087 507.1500964340825Q1091.561771995087 520.3628145164779 1086.1341409155968 530.834304780949Q1080.7065098361065 541.3057950454199 1070.9477388042958 547.4187330793911Q1061.1889677724853 553.5316711133626 1048.1407233591653 553.5316711133626ZM1050.909363455269 545.033864877797L1050.909363455269 545.033864877797Q1058.9959855181457 545.033864877797 1064.0398447031266 540.0996548055332Q1069.0837038881073 535.1654447332694 1071.4411598115223 527.3803577303643Q1073.7986157349374 519.5952707274591 1073.7986157349374 511.0974644918936L1073.7986157349374 511.0974644918936Q1073.7986157349374 500.62597422742255 1070.9477388042958 490.9768523083289Q1068.0968618736547 481.3003181110559 1061.9565115615042 475.1873800770846Q1055.8435735275327 469.04702976493405 1045.7832674357503 469.04702976493405L1045.7832674357503 469.04702976493405Q1037.6966453728735 469.04702976493405 1032.570549353355 473.9812398371979Q1027.4170410556571 478.91544990946176 1024.9499360195252 486.61830007782913Q1022.4828309833933 494.32115024619657 1022.4828309833933 503.01084242901675L1022.4828309833933 503.01084242901675Q1022.4828309833933 513.4549204153086 1025.4433570267518 523.1314546125815Q1028.40388307011 532.8079888098544 1034.6264702167982 538.9209268438258Q1040.8490573634865 545.033864877797 1050.909363455269 545.033864877797ZM1141.1231709431593 551.557987084457L1106.5837004373125 551.557987084457L1106.5837004373125 548.4055750938439L1117.219664370859 541.4976809926745L1143.0968549720646 507.53386832859195L1116.8358924763495 472.00755580829235L1107.570542451765 465.8946177743211L1107.570542451765 462.7422057837081L1148.414836938838 462.7422057837081L1148.414836938838 465.8946177743211L1134.9828206310085 471.81566986103763L1134.9828206310085 472.99439782274516L1153.349047011102 497.88474640949823L1169.3304051896007 474.20053806263184L1169.3304051896007 472.99439782274516L1158.0913711361109 465.8946177743211L1158.0913711361109 462.7422057837081L1190.8490435603069 462.7422057837081L1190.8490435603069 465.8946177743211L1180.377553295836 472.80251187549044L1157.296415068913 503.20272837627147L1186.1067194352977 542.2926370598727L1194.1933414981747 548.4055750938439L1194.1933414981747 551.557987084457L1155.9258011599507 551.557987084457L1155.9258011599507 548.4055750938439L1167.9597912806385 542.4845230071273L1167.9597912806385 541.3057950454199L1147.0442230298759 513.0711485207992L1128.8698825970373 540.0996548055332L1128.8698825970373 541.3057950454199L1141.1231709431593 548.4055750938439L1141.1231709431593 551.557987084457ZM1312.8336814579404 551.557987084457L1261.5178967063966 551.557987084457L1261.5178967063966 548.4055750938439L1277.307368937641 540.5108389782218L1277.307368937641 432.34198928292705L1261.5178967063966 424.44725316730495L1261.5178967063966 421.29484117669193L1356.035431868428 421.29484117669193L1356.035431868428 455.23124156259536L1352.883019877815 455.23124156259536L1340.6571438098727 432.1501033356723L1295.0705251977906 432.1501033356723L1295.0705251977906 478.91544990946176L1326.6494696602792 478.91544990946176L1336.5178898048068 462.55031983645335L1339.6703017954198 462.55031983645335L1339.6703017954198 505.77948252512033L1336.5178898048068 505.77948252512033L1326.6494696602792 489.77071206844215L1295.0705251977906 489.77071206844215L1295.0705251977906 540.5108389782218L1312.8336814579404 548.4055750938439L1312.8336814579404 551.557987084457ZM1400.2514365715479 436.89242746068146L1400.2514365715479 436.89242746068146Q1395.1253405520292 436.89242746068146 1391.7810426141616 433.43848041009676Q1388.4093323981147 429.9845333595121 1388.4093323981147 425.05032328724826L1388.4093323981147 425.05032328724826Q1388.4093323981147 419.92422726772975 1391.7810426141616 416.5525170516828Q1395.1253405520292 413.2082191138151 1400.2514365715479 413.2082191138151L1400.2514365715479 413.2082191138151Q1405.3775325910665 413.2082191138151 1408.7492428071134 416.5525170516828Q1412.093540744981 419.92422726772975 1412.093540744981 425.05032328724826L1412.093540744981 425.05032328724826Q1412.093540744981 429.9845333595121 1408.7492428071134 433.43848041009676Q1405.3775325910665 436.89242746068146 1400.2514365715479 436.89242746068146ZM1421.1670048223107 551.557987084457L1380.5145962824927 551.557987084457L1380.5145962824927 548.4055750938439L1392.9597705758692 542.0733388344388L1392.9597705758692 483.27400213996145L1381.117666402436 472.99439782274516L1381.117666402436 471.623783913783L1407.570514845406 460.7685217548025L1408.7492428071134 460.7685217548025L1408.7492428071134 542.0733388344388L1421.1670048223107 548.4055750938439L1421.1670048223107 551.557987084457ZM1484.133007800033 551.557987084457L1441.8906871258187 551.557987084457L1441.8906871258187 548.4055750938439L1454.3358614191952 542.0733388344388L1454.3358614191952 483.27400213996145L1442.493757245762 472.99439782274516L1442.493757245762 471.623783913783L1466.9729216598264 460.7685217548025L1468.151649621534 460.7685217548025L1470.1253336504396 478.91544990946176L1470.728403770383 478.91544990946176Q1477.828183818807 469.4582139376227 1484.0507709654953 465.4011967670947Q1490.2459458340043 461.3715918747459 1495.7832260262117 461.3715918747459L1495.7832260262117 461.3715918747459Q1499.9224800312772 461.3715918747459 1502.6911201273808 463.42751273818914Q1505.4597602234844 465.51084587981165 1505.4597602234844 469.6500998848774L1505.4597602234844 469.6500998848774Q1505.4597602234844 470.8288278465849 1504.856690103541 474.20053806263184L1504.856690103541 474.20053806263184L1503.6779621418336 481.4922040583106L1482.5705079438162 477.5448360004996Q1475.4433156172126 480.5053620438579 1470.1253336504396 488.2082122122253L1470.1253336504396 488.2082122122253L1470.1253336504396 542.0733388344388L1484.133007800033 548.4055750938439L1484.133007800033 551.557987084457ZM1552.033220850019 553.5316711133626L1552.033220850019 553.5316711133626Q1542.7678708254348 553.5316711133626 1536.0518626715202 551.9417589789664Q1529.3358545176054 550.3792591227495 1522.4279604164362 546.8156629594479L1522.4279604164362 546.8156629594479L1522.4279604164362 524.7213667469775L1525.1966005125396 524.7213667469775L1531.5014244937656 535.5766289059579Q1537.614362527737 546.4318910649384 1551.4301507300756 546.4318910649384L1551.4301507300756 546.4318910649384Q1559.5441850711318 546.4318910649384 1563.8753250234522 542.6764089543822Q1568.2064649757726 538.9209268438258 1568.2064649757726 532.4242169153449L1568.2064649757726 532.4242169153449Q1568.2064649757726 526.8869367231378 1565.4652371578482 523.6248756198079Q1562.6965970617448 520.3628145164779 1557.6527378767641 517.8957094803459Q1552.6362909699624 515.428604444214 1545.728396868793 512.276192453601L1545.728396868793 512.276192453601Q1535.6406784988314 507.7531665540259 1530.2130474193414 502.3255354745357Q1524.785416339851 496.8979043950455 1524.785416339851 487.0294842505178L1524.785416339851 487.0294842505178Q1524.785416339851 479.7104059766598 1528.952082623096 473.7893538899432Q1533.0913366281618 467.8683018032266 1539.505809722105 464.3321179181042Q1545.9202828160478 460.7685217548025 1552.8281769172172 460.7685217548025L1552.8281769172172 460.7685217548025Q1560.1198429128958 460.7685217548025 1566.342430059584 462.55031983645335Q1572.5650172062724 464.3321179181042 1578.6779552402436 467.4845299087172L1578.6779552402436 467.4845299087172L1578.6779552402436 489.00316827942333L1575.9093151441402 489.00316827942333L1569.4126052156594 478.5316780149523Q1563.080368956254 468.47137192316995 1553.6231329844152 468.47137192316995L1553.6231329844152 468.47137192316995Q1546.9071248305004 468.47137192316995 1542.8501076599725 471.81566986103763Q1538.8205027676236 475.1873800770846 1538.8205027676236 481.1084321638012L1538.8205027676236 481.1084321638012Q1538.8205027676236 487.7970280395366 1543.6450637271705 491.2509750901213Q1548.4696246867175 494.704922140706 1557.762386989481 499.0634743712057L1557.762386989481 499.0634743712057Q1563.491553128943 501.8321144673093 1569.0014210429708 504.57334228523365Q1574.538701235178 507.34198238133723 1578.1845342330175 512.385841566318Q1581.8303672308568 517.4022884731196 1581.8303672308568 526.6950507758831L1581.8303672308568 526.6950507758831Q1581.8303672308568 535.3847429587033 1577.0880431058476 541.3880318799577Q1572.373131259018 547.4187330793911 1565.4652371578482 550.4614959572873Q1558.557343056679 553.5316711133626 1552.033220850019 553.5316711133626ZM1636.2985639730136 553.5316711133626L1636.2985639730136 553.5316711133626Q1627.6362840683728 553.5316711133626 1621.3040478089674 548.4055750938439Q1614.9992238277414 543.2794790743254 1614.9992238277414 533.986716771562L1614.9992238277414 533.986716771562L1614.9992238277414 472.00755580829235L1598.7985674238084 472.00755580829235L1598.7985674238084 470.8288278465849L1615.5748816695054 462.7422057837081L1629.6099680972782 441.0316814657472L1630.7886960589858 441.0316814657472L1630.7886960589858 462.7422057837081L1656.830360329267 462.7422057837081L1656.830360329267 472.00755580829235L1630.7886960589858 472.00755580829235L1630.7886960589858 530.6424188336941Q1630.7886960589858 535.5766289059579 1635.3117219585608 538.04373394209Q1639.8621601363152 540.5108389782218 1645.9750981702864 540.5108389782218L1645.9750981702864 540.5108389782218Q1649.7305802808428 540.5108389782218 1652.9926413841729 540.0996548055332Q1656.254702487503 539.7158829110238 1658.6121584109178 539.1128127910804L1658.6121584109178 539.1128127910804L1659.2152285308612 539.1128127910804L1659.2152285308612 541.086496819986Q1657.2415445019556 545.4450490504857 1651.4027292497767 549.4746539428345Q1645.5913262757772 553.5316711133626 1636.2985639730136 553.5316711133626ZM1763.6011838374202 551.557987084457L1720.9750912686968 551.557987084457L1720.9750912686968 548.4055750938439L1733.6121515093278 541.881452887184L1784.1329801936736 420.3079991622391L1793.0145583237486 420.3079991622391L1842.7678432190755 541.3057950454199L1855.980561301471 548.4055750938439L1855.980561301471 551.557987084457L1807.0222324733422 551.557987084457L1807.0222324733422 548.4055750938439L1824.4016168389826 541.6895669399294L1809.5989866221908 505.176412405177L1761.6274998085146 505.176412405177L1747.0441678171574 541.6895669399294L1763.6011838374202 548.4055750938439L1763.6011838374202 551.557987084457ZM1785.72289232807 445.77400559075636L1766.1779379862692 494.32115024619657L1805.2678466698703 494.32115024619657L1785.72289232807 445.77400559075636ZM1892.8774877307328 436.89242746068146L1892.8774877307328 436.89242746068146Q1887.7513917112142 436.89242746068146 1884.4070937733463 433.43848041009676Q1881.0353835572996 429.9845333595121 1881.0353835572996 425.05032328724826L1881.0353835572996 425.05032328724826Q1881.0353835572996 419.92422726772975 1884.4070937733463 416.5525170516828Q1887.7513917112142 413.2082191138151 1892.8774877307328 413.2082191138151L1892.8774877307328 413.2082191138151Q1898.0309960284303 413.2082191138151 1901.3752939662982 416.5525170516828Q1904.719591904166 419.92422726772975 1904.719591904166 425.05032328724826L1904.719591904166 425.05032328724826Q1904.719591904166 429.9845333595121 1901.3752939662982 433.43848041009676Q1898.0309960284303 436.89242746068146 1892.8774877307328 436.89242746068146ZM1913.8204682596747 551.557987084457L1873.1406474416772 551.557987084457L1873.1406474416772 548.4055750938439L1885.5858217350537 542.0733388344388L1885.5858217350537 483.27400213996145L1873.743717561621 472.99439782274516L1873.743717561621 471.623783913783L1900.1965660045907 460.7685217548025L1901.3752939662982 460.7685217548025L1901.3752939662982 542.0733388344388L1913.8204682596747 548.4055750938439L1913.8204682596747 551.557987084457ZM1967.3018229873787 553.5316711133626L1967.3018229873787 553.5316711133626Q1957.4334028428511 553.5316711133626 1949.6209035617667 548.5974610410988Q1941.8358165588616 543.6632509688349 1937.3950274938238 534.672023726043Q1932.9542384287865 525.7082087614303 1932.9542384287865 513.2630344680538L1932.9542384287865 513.2630344680538Q1932.9542384287865 496.4867202223568 1939.4783606354467 484.7542651616406Q1945.9750705639271 472.99439782274516 1956.8303327229078 466.88145978877384Q1967.685594881888 460.7685217548025 1980.5145410697742 460.7685217548025L1980.5145410697742 460.7685217548025Q1986.0518212619813 460.7685217548025 1990.191075267047 461.2619427620289Q1994.330329272113 461.7553637692553 1997.7020394881597 462.55031983645335L1997.7020394881597 462.55031983645335L1997.7020394881597 426.037165301701L1984.873093300274 415.75756098448477L1984.873093300274 414.3869470755225L2012.2853714795174 403.53168491654213L2013.4915117194041 403.53168491654213L2013.4915117194041 542.6764089543822L2027.4991858689973 548.4055750938439L2027.4991858689973 551.557987084457L1999.6757235170653 551.557987084457L1998.085811382669 541.4976809926745L1996.7151974737071 541.4976809926745Q1989.2042332525943 547.8025049739006 1982.296339151425 550.6807941827212Q1975.3884450502555 553.5316711133626 1967.3018229873787 553.5316711133626ZM1948.743710660031 508.74000856847863L1948.743710660031 508.74000856847863Q1948.743710660031 524.9132526942324 1957.4334028428511 532.4242169153449Q1966.1230950256713 539.9077688582786 1978.157085146359 539.9077688582786L1978.157085146359 539.9077688582786Q1982.8994092713683 539.9077688582786 1987.91585617817 538.4275058365993Q1992.9597153631507 536.9472428149202 1997.7020394881597 533.986716771562L1997.7020394881597 533.986716771562L1997.7020394881597 478.72356396220704Q1992.9597153631507 474.5843099571413 1988.3270403508586 472.50097681551875Q1983.6669530603872 470.4450559520755 1977.9651991991045 470.4450559520755L1977.9651991991045 470.4450559520755Q1970.0704630834825 470.4450559520755 1963.4366917641055 474.2827748971696Q1956.8303327229078 478.1479061204429 1952.800727830559 486.53606324329144Q1948.743710660031 494.92422036613993 1948.743710660031 508.74000856847863Z " fill="#ffffff" transform="matrix(0.4315661491103437,0,0,0.4315661491103437,0,93.48194527212846)"/></g></svg>